{"title":"\nOnly Connect S13E12 Detectives v Theatricals. revittony","magnet":"magnet:?xt=urn:btih:bbc94dadd800b3bbfab26d7ac9df026faa2260de&dn=Only+Connect+S13E12+Detectives+v+Theatricals.+revittony&tr=udp%3A%2F%2Ftracker.leechers-paradise.org%3A6969&tr=udp%3A%2F%2Fzer0day.ch%3A1337&tr=udp%3A%2F%2Fopen.demonii.com%3A1337&tr=udp%3A%2F%2Ftracker.coppersurfer.tk%3A6969&tr=udp%3A%2F%2Fexodus.desync.com%3A6969","uploader":"revittony1","categoryP":"video","categoryS":"tv_shows","size":"521642761","seeders":"0","leechers":"0","description":" \r\nFormat : MPEG-4 \r\nFormat profile : Base Media \r\nCodec ID : isom (isom/iso2/avc1/mp41) \r\nOverall bit rate mode : Variable \r\nOverall bit rate : 2 405 kb/s \r\n\r\nVideo \r\nID : 1 \r\nFormat : AVC \r\nFormat/Info : Advanced Video Codec \r\nFormat profile : <a href=\"/cdn-cgi/l/email-protection\" class=\"__cf_email__\" data-cfemail=\"2e664749466e621a001f\">[email&#xA0;protected]</a> \r\nFormat settings, CABAC : Yes \r\nFormat settings, RefFrames : 2 frames \r\nCodec ID : avc1 \r\nCodec ID/Info : Advanced Video Coding \r\nBit rate mode : Variable \r\nBit rate : 2 306 kb/s \r\nMaximum bit rate : 3 500 kb/s \r\nWidth : 1 280 pixels \r\nHeight : 720 pixels \r\nDisplay aspect ratio : 16:9 \r\nFrame rate mode : Constant \r\nFrame rate : 25.000 FPS \r\nColor space : YUV \r\nChroma subsampling : 4:2:0 \r\nBit depth : 8 bits \r\nScan type : Progressive \r\nBits/(Pixel*Frame) : 0.100 \r\nStream size : 478 MiB (96%) \r\n\r\nAudio \r\nID : 2 \r\nFormat : AAC \r\nFormat/Info : Advanced Audio Codec \r\nFormat profile : LC \r\nCodec ID : 40 \r\nBit rate mode : Constant \r\nBit rate : 93.5 kb/s \r\nChannel(s) : 2 channels \r\nChannel positions : Front: L R \r\nSampling rate : 48.0 kHz \r\nFrame rate : 46.875 FPS (1024 SPF) \r\nCompression mode : Lossy \r\nStream size : 19.4 MiB (4%) \r\nDefault : Yes \r\nAlternate group : 1","last_updated":"2017-10-14T12:04:00.209Z","parsed":{"xt":"urn:btih:bbc94dadd800b3bbfab26d7ac9df026faa2260de","dn":"Only Connect S13E12 Detectives v Theatricals. revittony","tr":["udp://exodus.desync.com:6969","udp://open.demonii.com:1337","udp://tracker.coppersurfer.tk:6969","udp://tracker.leechers-paradise.org:6969","udp://zer0day.ch:1337"],"infoHash":"bbc94dadd800b3bbfab26d7ac9df026faa2260de","infoHashBuffer":{"type":"Buffer","data":[187,201,77,173,216,0,179,187,250,178,109,122,201,223,2,111,170,34,96,222]},"name":"Only Connect S13E12 Detectives v Theatricals. revittony","announce":["udp://exodus.desync.com:6969","udp://open.demonii.com:1337","udp://tracker.coppersurfer.tk:6969","udp://tracker.leechers-paradise.org:6969","udp://zer0day.ch:1337"],"urlList":[]}}